<svg width="64" height="64" viewBox="0 0 64 64" fill="none" xmlns="http://www.w3.org/2000/svg">
<path d="M32 64C49.6731 64 64 49.6731 64 32C64 14.3269 49.6731 0 32 0C14.3269 0 0 14.3269 0 32C0 49.6731 14.3269 64 32 64Z" fill="#0657F9"/>
<path fill-rule="evenodd" clip-rule="evenodd" d="M30.265 16.5056V12.0882C30.2675 11.9264 30.3141 11.7684 30.3999 11.6311C30.4857 11.4939 30.6074 11.3828 30.7518 11.3097C30.8962 11.2366 31.0578 11.2044 31.2192 11.2165C31.3806 11.2286 31.5356 11.2845 31.6674 11.3783L40.2892 17.4353C40.4039 17.5148 40.4975 17.6209 40.5622 17.7446C40.6269 17.8682 40.6607 18.0056 40.6607 18.1451C40.6607 18.2847 40.6269 18.4221 40.5622 18.5457C40.4975 18.6694 40.4039 18.7755 40.2892 18.855L31.6674 24.912C31.5356 25.0058 31.3806 25.0617 31.2192 25.0738C31.0578 25.0859 30.8962 25.0537 30.7518 24.9806C30.6074 24.9075 30.4857 24.7964 30.3999 24.6591C30.3141 24.5219 30.2675 24.3639 30.265 24.2021V20.0058C27.6191 20.342 25.1265 21.4345 23.086 23.1521C21.0456 24.8697 19.544 27.1396 18.7615 29.6893C17.9789 32.2391 17.9486 34.9605 18.6742 37.527C19.3997 40.0936 20.8503 42.3963 22.852 44.1589C24.8537 45.9216 27.3214 47.0693 29.9591 47.4644C32.5968 47.8596 35.2925 47.4853 37.7228 46.3865C40.1531 45.2878 42.2148 43.5112 43.6606 41.2699C45.1063 39.0286 45.8747 36.4178 45.8737 33.7507C45.8737 33.2909 46.0563 32.8501 46.3813 32.525C46.7064 32.1999 47.1473 32.0173 47.607 32.0173C48.0667 32.0173 48.5076 32.1999 48.8326 32.525C49.1577 32.8501 49.3403 33.2909 49.3403 33.7507C49.3404 37.1046 48.3675 40.3866 46.5394 43.1986C44.7114 46.0106 42.1068 48.2318 39.0414 49.593C35.9761 50.9541 32.5817 51.3967 29.2698 50.8671C25.9579 50.3374 22.8708 48.8583 20.3829 46.6091C17.8949 44.3598 16.1129 41.4371 15.253 38.1952C14.3931 34.9534 14.4922 31.5317 15.5383 28.345C16.5844 25.1583 18.5325 22.3436 21.1465 20.2422C23.7605 18.1407 26.928 16.8427 30.265 16.5056V16.5056Z" fill="white"/>
</svg>
